<svg xmlns="http://www.w3.org/2000/svg" xmlns:xlink="http://www.w3.org/1999/xlink" width="157" zoomAndPan="magnify" viewBox="0 0 117.75 156.75" height="209" preserveAspectRatio="xMidYMid meet" version="1.0"><defs><clipPath id="bcd2b4aaa9"><path d="M 39.007812 0.0429688 L 78.019531 0.0429688 L 78.019531 39.050781 L 39.007812 39.050781 Z M 39.007812 0.0429688 " clip-rule="nonzero"/></clipPath><clipPath id="e7a5e90f38"><path d="M 0.0078125 0.0429688 L 39.019531 0.0429688 L 39.019531 39.050781 L 0.0078125 39.050781 Z M 0.0078125 0.0429688 " clip-rule="nonzero"/></clipPath><clipPath id="1135d86bc1"><rect x="0" width="40" y="0" height="40"/></clipPath><clipPath id="752094ecfe"><path d="M 0 39.050781 L 39.007812 39.050781 L 39.007812 78.058594 L 0 78.058594 Z M 0 39.050781 " clip-rule="nonzero"/></clipPath><clipPath id="c42d58d400"><path d="M 0 0.0507812 L 39.007812 0.0507812 L 39.007812 39.058594 L 0 39.058594 Z M 0 0.0507812 " clip-rule="nonzero"/></clipPath><clipPath id="a1ebf1f662"><rect x="0" width="40" y="0" height="40"/></clipPath><clipPath id="42f410321c"><path d="M 0 78.058594 L 39.007812 78.058594 L 39.007812 117.070312 L 0 117.070312 Z M 0 78.058594 " clip-rule="nonzero"/></clipPath><clipPath id="d31cf4d02a"><path d="M 0 0.0585938 L 39.007812 0.0585938 L 39.007812 39.070312 L 0 39.070312 Z M 0 0.0585938 " clip-rule="nonzero"/></clipPath><clipPath id="b530fd36ac"><rect x="0" width="40" y="0" height="40"/></clipPath><clipPath id="db7ff22823"><path d="M 39.007812 78.058594 L 78.019531 78.058594 L 78.019531 117.070312 L 39.007812 117.070312 Z M 39.007812 78.058594 " clip-rule="nonzero"/></clipPath><clipPath id="ca4a9f3e97"><path d="M 0.0078125 0.0585938 L 39.019531 0.0585938 L 39.019531 39.070312 L 0.0078125 39.070312 Z M 0.0078125 0.0585938 " clip-rule="nonzero"/></clipPath><clipPath id="f466c34938"><rect x="0" width="40" y="0" height="40"/></clipPath><clipPath id="7e6e24cfb0"><path d="M 78.019531 78.058594 L 117.027344 78.058594 L 117.027344 117.070312 L 78.019531 117.070312 Z M 78.019531 78.058594 " clip-rule="nonzero"/></clipPath><clipPath id="4397b6324a"><path d="M 0.0195312 0.0585938 L 39.027344 0.0585938 L 39.027344 39.070312 L 0.0195312 39.070312 Z M 0.0195312 0.0585938 " clip-rule="nonzero"/></clipPath><clipPath id="1bed259346"><rect x="0" width="40" y="0" height="40"/></clipPath><clipPath id="e8b3773091"><path d="M 0 117.070312 L 39.007812 117.070312 L 39.007812 156.078125 L 0 156.078125 Z M 0 117.070312 " clip-rule="nonzero"/></clipPath><clipPath id="b5ba383385"><path d="M 0 0.0703125 L 39.007812 0.0703125 L 39.007812 39.078125 L 0 39.078125 Z M 0 0.0703125 " clip-rule="nonzero"/></clipPath><clipPath id="9c5222eb76"><rect x="0" width="40" y="0" height="40"/></clipPath><clipPath id="9b25d74bbf"><path d="M 78.019531 39.050781 L 117.027344 39.050781 L 117.027344 78.058594 L 78.019531 78.058594 Z M 78.019531 39.050781 " clip-rule="nonzero"/></clipPath><clipPath id="122ae13c70"><path d="M 0.0195312 0.0507812 L 39.027344 0.0507812 L 39.027344 39.058594 L 0.0195312 39.058594 Z M 0.0195312 0.0507812 " clip-rule="nonzero"/></clipPath><clipPath id="cb8ef71e69"><rect x="0" width="40" y="0" height="40"/></clipPath></defs><g clip-path="url(#bcd2b4aaa9)"><g transform="matrix(1, 0, 0, 1, 39, -0.000000000000004143)"><g clip-path="url(#1135d86bc1)"><g clip-path="url(#e7a5e90f38)"><path fill="#b970c8" d="M 0.0078125 0.0429688 L 39.019531 0.0429688 L 39.019531 39.050781 L 0.0078125 39.050781 Z M 0.0078125 0.0429688 " fill-opacity="1" fill-rule="nonzero"/></g></g></g></g><g clip-path="url(#752094ecfe)"><g transform="matrix(1, 0, 0, 1, 0, 39)"><g clip-path="url(#a1ebf1f662)"><g clip-path="url(#c42d58d400)"><path fill="#cc7ac2" d="M 0 0.0507812 L 39.007812 0.0507812 L 39.007812 39.058594 L 0 39.058594 Z M 0 0.0507812 " fill-opacity="1" fill-rule="nonzero"/></g></g></g></g><g clip-path="url(#42f410321c)"><g transform="matrix(1, 0, 0, 1, 0, 78)"><g clip-path="url(#b530fd36ac)"><g clip-path="url(#d31cf4d02a)"><path fill="#ff66c4" d="M 0 0.0585938 L 39.007812 0.0585938 L 39.007812 39.070312 L 0 39.070312 Z M 0 0.0585938 " fill-opacity="1" fill-rule="nonzero"/></g></g></g></g><g clip-path="url(#db7ff22823)"><g transform="matrix(1, 0, 0, 1, 39, 78)"><g clip-path="url(#f466c34938)"><g clip-path="url(#ca4a9f3e97)"><path fill="#9573df" d="M 0.0078125 0.0585938 L 39.019531 0.0585938 L 39.019531 39.070312 L 0.0078125 39.070312 Z M 0.0078125 0.0585938 " fill-opacity="1" fill-rule="nonzero"/></g></g></g></g><g clip-path="url(#7e6e24cfb0)"><g transform="matrix(1, 0, 0, 1, 78, 78)"><g clip-path="url(#1bed259346)"><g clip-path="url(#4397b6324a)"><path fill="#706ae2" d="M 0.0195312 0.0585938 L 39.027344 0.0585938 L 39.027344 39.070312 L 0.0195312 39.070312 Z M 0.0195312 0.0585938 " fill-opacity="1" fill-rule="nonzero"/></g></g></g></g><g clip-path="url(#e8b3773091)"><g transform="matrix(1, 0, 0, 1, 0, 117)"><g clip-path="url(#9c5222eb76)"><g clip-path="url(#b5ba383385)"><path fill="#9573df" d="M 0 0.0703125 L 39.007812 0.0703125 L 39.007812 39.078125 L 0 39.078125 Z M 0 0.0703125 " fill-opacity="1" fill-rule="nonzero"/></g></g></g></g><g clip-path="url(#9b25d74bbf)"><g transform="matrix(1, 0, 0, 1, 78, 39)"><g clip-path="url(#cb8ef71e69)"><g clip-path="url(#122ae13c70)"><path fill="#9573df" d="M 0.0195312 0.0507812 L 39.027344 0.0507812 L 39.027344 39.058594 L 0.0195312 39.058594 Z M 0.0195312 0.0507812 " fill-opacity="1" fill-rule="nonzero"/></g></g></g></g></svg>