<svg xmlns="http://www.w3.org/2000/svg" xmlns:xlink="http://www.w3.org/1999/xlink" width="505" zoomAndPan="magnify" viewBox="0 0 378.75 97.5" height="130" preserveAspectRatio="xMidYMid meet" version="1.0"><defs><g/><clipPath id="c466cc0621"><path d="M 0.84375 0 L 377.660156 0 L 377.660156 97.003906 L 0.84375 97.003906 Z M 0.84375 0 " clip-rule="nonzero"/></clipPath><clipPath id="820576cb21"><path d="M 0.84375 18 L 62.027344 18 L 62.027344 80 L 0.84375 80 Z M 0.84375 18 " clip-rule="nonzero"/></clipPath></defs><g clip-path="url(#c466cc0621)"><path fill="#ffffff" d="M 0.84375 0 L 377.660156 0 L 377.660156 97.003906 L 0.84375 97.003906 Z M 0.84375 0 " fill-opacity="1" fill-rule="nonzero"/></g><g clip-path="url(#820576cb21)"><path fill="#444444" d="M 35.039062 66.945312 C 31.460938 70.179688 27.558594 72.960938 23.332031 75.285156 C 22.199219 75.949219 21.03125 76.5625 19.820312 77.128906 C 17.640625 76.226562 15.589844 75.085938 13.671875 73.707031 C 11.75 72.332031 10.015625 70.753906 8.457031 68.980469 C 6.902344 67.203125 5.570312 65.273438 4.457031 63.1875 C 3.347656 61.105469 2.488281 58.921875 1.878906 56.640625 C 3.109375 57.402344 4.394531 58.132812 5.683594 58.808594 C 10.207031 61.253906 14.945312 63.164062 19.902344 64.539062 C 24.855469 65.914062 29.902344 66.714844 35.039062 66.945312 Z M 17.480469 60.796875 C 15.125 56.265625 13.300781 51.53125 12.007812 46.589844 C 10.714844 41.652344 9.980469 36.632812 9.808594 31.527344 C 9.808594 30.066406 9.808594 28.601562 9.808594 27.167969 C 8.394531 28.585938 7.132812 30.128906 6.019531 31.792969 C 4.910156 33.460938 3.96875 35.21875 3.199219 37.066406 C 2.433594 38.917969 1.851562 40.824219 1.457031 42.789062 C 1.0625 44.75 0.859375 46.734375 0.855469 48.738281 C 0.851562 50.070312 0.941406 51.398438 1.117188 52.71875 C 2.210938 53.460938 3.320312 54.164062 4.453125 54.828125 C 8.578125 57.316406 12.925781 59.308594 17.507812 60.796875 Z M 35.597656 21.226562 C 36.855469 20.464844 38.144531 19.703125 39.460938 19.03125 C 37.191406 18.429688 34.882812 18.09375 32.539062 18.019531 C 30.191406 17.949219 27.867188 18.144531 25.566406 18.605469 C 23.265625 19.066406 21.046875 19.785156 18.910156 20.753906 C 16.773438 21.726562 14.773438 22.925781 12.914062 24.355469 C 12.914062 25.675781 12.738281 26.992188 12.707031 28.308594 C 12.640625 33.121094 13.101562 37.882812 14.082031 42.589844 C 16.824219 38.273438 20.011719 34.308594 23.640625 30.703125 C 27.273438 27.097656 31.257812 23.9375 35.597656 21.226562 Z M 57.460938 38.492188 C 58.75 39.167969 60.035156 39.898438 61.265625 40.660156 C 60.65625 38.378906 59.796875 36.195312 58.6875 34.113281 C 57.574219 32.027344 56.242188 30.097656 54.683594 28.320312 C 53.128906 26.546875 51.390625 24.96875 49.472656 23.59375 C 47.554688 22.214844 45.503906 21.074219 43.324219 20.171875 C 42.113281 20.738281 40.941406 21.351562 39.8125 22.015625 C 35.585938 24.34375 31.683594 27.125 28.101562 30.355469 C 33.242188 30.585938 38.289062 31.386719 43.242188 32.761719 C 48.199219 34.136719 52.9375 36.046875 57.460938 38.492188 Z M 53.332031 70.425781 C 54.757812 69.003906 56.027344 67.453125 57.148438 65.777344 C 58.265625 64.101562 59.210938 62.335938 59.980469 60.476562 C 60.753906 58.613281 61.335938 56.695312 61.726562 54.722656 C 62.121094 52.746094 62.316406 50.753906 62.320312 48.738281 C 62.320312 47.40625 62.234375 46.078125 62.054688 44.757812 C 60.964844 44.035156 59.851562 43.332031 58.71875 42.648438 C 54.589844 40.199219 50.238281 38.25 45.664062 36.796875 C 48.019531 41.328125 49.84375 46.0625 51.136719 51.003906 C 52.429688 55.941406 53.164062 60.960938 53.332031 66.066406 C 53.539062 67.527344 53.539062 68.992188 53.332031 70.425781 Z M 27.578125 76.28125 C 26.316406 77.042969 25.03125 77.804688 23.714844 78.476562 C 25.980469 79.078125 28.289062 79.414062 30.636719 79.484375 C 32.980469 79.558594 35.304688 79.363281 37.605469 78.898438 C 39.90625 78.4375 42.125 77.722656 44.261719 76.75 C 46.398438 75.78125 48.398438 74.578125 50.261719 73.148438 C 50.261719 71.832031 50.4375 70.515625 50.464844 69.199219 C 50.53125 64.386719 50.074219 59.625 49.089844 54.914062 C 46.347656 59.230469 43.160156 63.1875 39.527344 66.789062 C 35.898438 70.390625 31.914062 73.542969 27.578125 76.25 Z M 27.578125 76.28125 " fill-opacity="1" fill-rule="nonzero"/></g><g fill="#444444" fill-opacity="1"><g transform="translate(76.278565, 67.078503)"><g><path d="M 17.125 0.65625 C 14.09375 0.65625 11.164062 0.242188 8.34375 -0.578125 C 5.519531 -1.398438 3.25 -2.46875 1.53125 -3.78125 L 4.546875 -10.453125 C 6.179688 -9.242188 8.128906 -8.273438 10.390625 -7.546875 C 12.660156 -6.816406 14.925781 -6.453125 17.1875 -6.453125 C 19.695312 -6.453125 21.550781 -6.828125 22.75 -7.578125 C 23.957031 -8.328125 24.5625 -9.320312 24.5625 -10.5625 C 24.5625 -11.46875 24.207031 -12.222656 23.5 -12.828125 C 22.789062 -13.429688 21.878906 -13.914062 20.765625 -14.28125 C 19.648438 -14.644531 18.144531 -15.046875 16.25 -15.484375 C 13.332031 -16.179688 10.941406 -16.875 9.078125 -17.5625 C 7.222656 -18.257812 5.628906 -19.375 4.296875 -20.90625 C 2.960938 -22.4375 2.296875 -24.476562 2.296875 -27.03125 C 2.296875 -29.257812 2.894531 -31.273438 4.09375 -33.078125 C 5.300781 -34.878906 7.117188 -36.304688 9.546875 -37.359375 C 11.972656 -38.421875 14.9375 -38.953125 18.4375 -38.953125 C 20.882812 -38.953125 23.273438 -38.660156 25.609375 -38.078125 C 27.941406 -37.492188 29.984375 -36.65625 31.734375 -35.5625 L 29 -28.84375 C 25.457031 -30.84375 21.921875 -31.84375 18.390625 -31.84375 C 15.910156 -31.84375 14.078125 -31.441406 12.890625 -30.640625 C 11.703125 -29.835938 11.109375 -28.78125 11.109375 -27.46875 C 11.109375 -26.15625 11.789062 -25.175781 13.15625 -24.53125 C 14.53125 -23.894531 16.617188 -23.269531 19.421875 -22.65625 C 22.335938 -21.957031 24.726562 -21.257812 26.59375 -20.5625 C 28.457031 -19.875 30.050781 -18.78125 31.375 -17.28125 C 32.707031 -15.789062 33.375 -13.769531 33.375 -11.21875 C 33.375 -9.03125 32.765625 -7.03125 31.546875 -5.21875 C 30.328125 -3.414062 28.492188 -1.984375 26.046875 -0.921875 C 23.597656 0.128906 20.625 0.65625 17.125 0.65625 Z M 17.125 0.65625 "/></g></g></g><g fill="#444444" fill-opacity="1"><g transform="translate(111.187005, 67.078503)"><g><path d="M 39.671875 -38.296875 L 39.671875 0 L 30.8125 0 L 30.8125 -15.703125 L 13.40625 -15.703125 L 13.40625 0 L 4.546875 0 L 4.546875 -38.296875 L 13.40625 -38.296875 L 13.40625 -23.203125 L 30.8125 -23.203125 L 30.8125 -38.296875 Z M 39.671875 -38.296875 "/></g></g></g><g fill="#444444" fill-opacity="1"><g transform="translate(155.397065, 67.078503)"><g><path d="M 23.09375 0.65625 C 19.113281 0.65625 15.523438 -0.195312 12.328125 -1.90625 C 9.140625 -3.625 6.644531 -5.988281 4.84375 -9 C 3.039062 -12.007812 2.140625 -15.394531 2.140625 -19.15625 C 2.140625 -22.90625 3.039062 -26.285156 4.84375 -29.296875 C 6.644531 -32.304688 9.140625 -34.664062 12.328125 -36.375 C 15.523438 -38.09375 19.113281 -38.953125 23.09375 -38.953125 C 27.070312 -38.953125 30.644531 -38.09375 33.8125 -36.375 C 36.988281 -34.664062 39.488281 -32.304688 41.3125 -29.296875 C 43.132812 -26.285156 44.046875 -22.90625 44.046875 -19.15625 C 44.046875 -15.394531 43.132812 -12.007812 41.3125 -9 C 39.488281 -5.988281 36.988281 -3.625 33.8125 -1.90625 C 30.644531 -0.195312 27.070312 0.65625 23.09375 0.65625 Z M 23.09375 -6.890625 C 25.351562 -6.890625 27.394531 -7.410156 29.21875 -8.453125 C 31.039062 -9.492188 32.472656 -10.941406 33.515625 -12.796875 C 34.554688 -14.660156 35.078125 -16.78125 35.078125 -19.15625 C 35.078125 -21.519531 34.554688 -23.632812 33.515625 -25.5 C 32.472656 -27.363281 31.039062 -28.8125 29.21875 -29.84375 C 27.394531 -30.882812 25.351562 -31.40625 23.09375 -31.40625 C 20.832031 -31.40625 18.789062 -30.882812 16.96875 -29.84375 C 15.144531 -28.8125 13.710938 -27.363281 12.671875 -25.5 C 11.628906 -23.632812 11.109375 -21.519531 11.109375 -19.15625 C 11.109375 -16.78125 11.628906 -14.660156 12.671875 -12.796875 C 13.710938 -10.941406 15.144531 -9.492188 16.96875 -8.453125 C 18.789062 -7.410156 20.832031 -6.890625 23.09375 -6.890625 Z M 23.09375 -6.890625 "/></g></g></g><g fill="#444444" fill-opacity="1"><g transform="translate(201.576884, 67.078503)"><g><path d="M 23.09375 0.65625 C 19.113281 0.65625 15.523438 -0.195312 12.328125 -1.90625 C 9.140625 -3.625 6.644531 -5.988281 4.84375 -9 C 3.039062 -12.007812 2.140625 -15.394531 2.140625 -19.15625 C 2.140625 -22.90625 3.039062 -26.285156 4.84375 -29.296875 C 6.644531 -32.304688 9.140625 -34.664062 12.328125 -36.375 C 15.523438 -38.09375 19.113281 -38.953125 23.09375 -38.953125 C 27.070312 -38.953125 30.644531 -38.09375 33.8125 -36.375 C 36.988281 -34.664062 39.488281 -32.304688 41.3125 -29.296875 C 43.132812 -26.285156 44.046875 -22.90625 44.046875 -19.15625 C 44.046875 -15.394531 43.132812 -12.007812 41.3125 -9 C 39.488281 -5.988281 36.988281 -3.625 33.8125 -1.90625 C 30.644531 -0.195312 27.070312 0.65625 23.09375 0.65625 Z M 23.09375 -6.890625 C 25.351562 -6.890625 27.394531 -7.410156 29.21875 -8.453125 C 31.039062 -9.492188 32.472656 -10.941406 33.515625 -12.796875 C 34.554688 -14.660156 35.078125 -16.78125 35.078125 -19.15625 C 35.078125 -21.519531 34.554688 -23.632812 33.515625 -25.5 C 32.472656 -27.363281 31.039062 -28.8125 29.21875 -29.84375 C 27.394531 -30.882812 25.351562 -31.40625 23.09375 -31.40625 C 20.832031 -31.40625 18.789062 -30.882812 16.96875 -29.84375 C 15.144531 -28.8125 13.710938 -27.363281 12.671875 -25.5 C 11.628906 -23.632812 11.109375 -21.519531 11.109375 -19.15625 C 11.109375 -16.78125 11.628906 -14.660156 12.671875 -12.796875 C 13.710938 -10.941406 15.144531 -9.492188 16.96875 -8.453125 C 18.789062 -7.410156 20.832031 -6.890625 23.09375 -6.890625 Z M 23.09375 -6.890625 "/></g></g></g><g fill="#444444" fill-opacity="1"><g transform="translate(247.20953, 67.078503)"><g><path d="M 12.46875 -31.078125 L 0.21875 -31.078125 L 0.21875 -38.296875 L 33.59375 -38.296875 L 33.59375 -31.078125 L 21.34375 -31.078125 L 21.34375 0 L 12.46875 0 Z M 12.46875 -31.078125 "/></g></g></g><g fill="#444444" fill-opacity="1"><g transform="translate(281.023656, 67.078503)"><g><path d="M 34.203125 -7.109375 L 34.203125 0 L 4.546875 0 L 4.546875 -38.296875 L 33.484375 -38.296875 L 33.484375 -31.1875 L 13.34375 -31.1875 L 13.34375 -22.875 L 31.140625 -22.875 L 31.140625 -15.984375 L 13.34375 -15.984375 L 13.34375 -7.109375 Z M 34.203125 -7.109375 "/></g></g></g><g fill="#444444" fill-opacity="1"><g transform="translate(317.737698, 67.078503)"><g><path d="M 29.765625 -8.203125 L 11.984375 -8.203125 L 8.59375 0 L -0.5 0 L 16.578125 -38.296875 L 25.328125 -38.296875 L 42.46875 0 L 33.15625 0 Z M 26.96875 -14.9375 L 20.90625 -29.609375 L 14.828125 -14.9375 Z M 26.96875 -14.9375 "/></g></g></g></svg>